<mxfile host="app.diagrams.net" agent="Mozilla/5.0 (Macintosh; Intel Mac OS X 10_15_7) AppleWebKit/537.36 (KHTML, like Gecko) Chrome/138.0.0.0 Safari/537.36 Edg/138.0.0.0" version="28.0.9">
  <diagram name="第 1 页" id="_Iu1Qn7XyLJnoGhuoOPp">
    <mxGraphModel dx="1762" dy="741" grid="1" gridSize="10" guides="1" tooltips="1" connect="1" arrows="1" fold="1" page="1" pageScale="1" pageWidth="827" pageHeight="1169" math="0" shadow="0">
      <root>
        <mxCell id="0" />
        <mxCell id="1" parent="0" />
        <mxCell id="4WFyV-DMtGt6VfKLVKf8-9" value="" style="rounded=0;whiteSpace=wrap;html=1;movable=1;resizable=1;rotatable=1;deletable=1;editable=1;locked=0;connectable=1;" vertex="1" parent="1">
          <mxGeometry x="-10" y="230" width="450" height="80" as="geometry" />
        </mxCell>
        <mxCell id="4WFyV-DMtGt6VfKLVKf8-1" value="&lt;p style=&quot;margin: 0pt 0pt 0.0001pt; text-align: justify; font-family: &amp;quot;Times New Roman&amp;quot;;&quot; class=&quot;MsoNormal&quot;&gt;&lt;span style=&quot;font-family: 宋体;&quot;&gt;&lt;b style=&quot;&quot;&gt;&lt;font style=&quot;font-size: 18px;&quot;&gt;爱豆守护险&lt;/font&gt;&lt;/b&gt;&lt;/span&gt;&lt;/p&gt;" style="rounded=0;whiteSpace=wrap;html=1;" vertex="1" parent="1">
          <mxGeometry x="190" y="40" width="400" height="50" as="geometry" />
        </mxCell>
        <mxCell id="4WFyV-DMtGt6VfKLVKf8-2" value="&lt;p style=&quot;margin: 0pt 0pt 0.0001pt; text-align: justify; font-family: &amp;quot;Times New Roman&amp;quot;; font-size: 10.5pt;&quot; class=&quot;MsoNormal&quot;&gt;&lt;span style=&quot;font-family: 宋体; font-size: 10.5pt;&quot;&gt;粉丝经济蓬勃发展&lt;/span&gt;&lt;/p&gt;" style="rounded=0;whiteSpace=wrap;html=1;" vertex="1" parent="1">
          <mxGeometry x="80" y="150" width="290" height="50" as="geometry" />
        </mxCell>
        <mxCell id="4WFyV-DMtGt6VfKLVKf8-3" value="" style="endArrow=classic;html=1;rounded=0;entryX=0.483;entryY=1.02;entryDx=0;entryDy=0;entryPerimeter=0;" edge="1" parent="1" source="4WFyV-DMtGt6VfKLVKf8-2" target="4WFyV-DMtGt6VfKLVKf8-1">
          <mxGeometry width="50" height="50" relative="1" as="geometry">
            <mxPoint x="390" y="90" as="sourcePoint" />
            <mxPoint x="330" y="110" as="targetPoint" />
          </mxGeometry>
        </mxCell>
        <mxCell id="4WFyV-DMtGt6VfKLVKf8-4" value="支撑" style="text;html=1;align=center;verticalAlign=middle;whiteSpace=wrap;rounded=0;" vertex="1" parent="1">
          <mxGeometry x="370" y="110" width="60" height="30" as="geometry" />
        </mxCell>
        <mxCell id="4WFyV-DMtGt6VfKLVKf8-5" value="&lt;p style=&quot;margin: 0pt 0pt 0.0001pt; text-align: justify; font-family: &amp;quot;Times New Roman&amp;quot;; font-size: 10.5pt;&quot; class=&quot;MsoNormal&quot;&gt;&lt;span style=&quot;font-family: 宋体; letter-spacing: 0pt; font-size: 12pt; background: rgb(253, 253, 254);&quot; class=&quot;15&quot;&gt;&lt;font style=&quot;&quot; face=&quot;宋体&quot;&gt;演唱会经济&lt;/font&gt;&lt;/span&gt;&lt;/p&gt;" style="rounded=0;whiteSpace=wrap;html=1;movable=1;resizable=1;rotatable=1;deletable=1;editable=1;locked=0;connectable=1;" vertex="1" parent="1">
          <mxGeometry y="240" width="120" height="50" as="geometry" />
        </mxCell>
        <mxCell id="4WFyV-DMtGt6VfKLVKf8-6" value="&lt;p style=&quot;margin: 0pt 0pt 0.0001pt; text-align: justify; font-family: &amp;quot;Times New Roman&amp;quot;; font-size: 10.5pt;&quot; class=&quot;MsoNormal&quot;&gt;&lt;span style=&quot;font-family: 宋体; letter-spacing: 0pt; font-size: 12pt; background: rgb(253, 253, 254);&quot; class=&quot;15&quot;&gt;&lt;font style=&quot;&quot; face=&quot;宋体&quot;&gt;粉丝应援&lt;/font&gt;&lt;/span&gt;&lt;/p&gt;" style="rounded=0;whiteSpace=wrap;html=1;movable=1;resizable=1;rotatable=1;deletable=1;editable=1;locked=0;connectable=1;" vertex="1" parent="1">
          <mxGeometry x="140" y="240" width="120" height="50" as="geometry" />
        </mxCell>
        <mxCell id="4WFyV-DMtGt6VfKLVKf8-7" value="&lt;p style=&quot;margin: 0pt 0pt 0.0001pt; text-align: justify; font-family: &amp;quot;Times New Roman&amp;quot;; font-size: 10.5pt;&quot; class=&quot;MsoNormal&quot;&gt;&lt;span style=&quot;font-family: 宋体; letter-spacing: 0pt; font-size: 12pt; background: rgb(253, 253, 254);&quot; class=&quot;15&quot;&gt;&lt;font style=&quot;&quot; face=&quot;宋体&quot;&gt;政策与市场&lt;/font&gt;&lt;/span&gt;&lt;/p&gt;" style="rounded=0;whiteSpace=wrap;html=1;movable=1;resizable=1;rotatable=1;deletable=1;editable=1;locked=0;connectable=1;" vertex="1" parent="1">
          <mxGeometry x="270" y="240" width="130" height="50" as="geometry" />
        </mxCell>
        <mxCell id="4WFyV-DMtGt6VfKLVKf8-10" value="" style="endArrow=classic;html=1;rounded=0;exitX=0.5;exitY=0;exitDx=0;exitDy=0;" edge="1" parent="1" source="4WFyV-DMtGt6VfKLVKf8-9">
          <mxGeometry width="50" height="50" relative="1" as="geometry">
            <mxPoint x="170" y="250" as="sourcePoint" />
            <mxPoint x="220" y="200" as="targetPoint" />
          </mxGeometry>
        </mxCell>
        <mxCell id="4WFyV-DMtGt6VfKLVKf8-11" value="包含" style="text;html=1;align=center;verticalAlign=middle;whiteSpace=wrap;rounded=0;" vertex="1" parent="1">
          <mxGeometry x="220" y="200" width="60" height="30" as="geometry" />
        </mxCell>
      </root>
    </mxGraphModel>
  </diagram>
</mxfile>
